{
  "accessors": [
    {
      "bufferView": 2,
      "componentType": 5126,
      "count": 3207,
      "max": [
        1.2015430927276611,
        0.8889333009719849,
        3.8297336101531982
      ],
      "min": [
        -1.201542854309082,
        -0.8733335733413696,
        -15.883524894714355
      ],
      "type": "VEC3"
    },
    {
      "bufferView": 2,
      "byteOffset": 38484,
      "componentType": 5126,
      "count": 3207,
      "max": [
        0.9978461861610413,
        1.0,
        1.0
      ],
      "min": [
        -0.9998884201049805,
        -1.0,
        -1.0
      ],
      "type": "VEC3"
    },
    {
      "bufferView": 3,
      "componentType": 5126,
      "count": 3207,
      "max": [
        1.0,
        0.9995911717414856,
        1.0,
        1.0
      ],
      "min": [
        -0.9999898672103882,
        -0.9998499751091003,
        -1.0,
        1.0
      ],
      "type": "VEC4"
    },
    {
      "bufferView": 1,
      "componentType": 5126,
      "count": 3207,
      "max": [
        0.9982252717018127,
        0.9981903433799744
      ],
      "min": [
        0.0015243543311953545,
        0.0015234414022415876
      ],
      "type": "VEC2"
    },
    {
      "bufferView": 1,
      "byteOffset": 25656,
      "componentType": 5126,
      "count": 3207,
      "max": [
        0.9982252717018127,
        0.9981903433799744
      ],
      "min": [
        0.0015243543311953545,
        0.0015234414022415876
      ],
      "type": "VEC2"
    },
    {
      "bufferView": 1,
      "byteOffset": 51312,
      "componentType": 5126,
      "count": 3207,
      "max": [
        0.9982252717018127,
        0.9981903433799744
      ],
      "min": [
        0.0015243543311953545,
        0.0015234414022415876
      ],
      "type": "VEC2"
    },
    {
      "bufferView": 0,
      "componentType": 5125,
      "count": 11982,
      "type": "SCALAR"
    }
  ],
  "asset": {
    "extras": {
      "author": "Michal Cavrnoch (https://sketchfab.com/MichalCavrnoch)",
      "license": "CC-BY-4.0 (http://creativecommons.org/licenses/by/4.0/)",
      "source": "https://sketchfab.com/3d-models/firelink-greatsword-gwyn-phase-221096510b5841bb98f678606567b073",
      "title": "Firelink greatsword - Gwyn phase"
    },
    "generator": "Sketchfab-12.67.0",
    "version": "2.0"
  },
  "bufferViews": [
    {
      "buffer": 0,
      "byteLength": 47928,
      "name": "floatBufferViews",
      "target": 34963
    },
    {
      "buffer": 0,
      "byteLength": 76968,
      "byteOffset": 47928,
      "byteStride": 8,
      "name": "floatBufferViews",
      "target": 34962
    },
    {
      "buffer": 0,
      "byteLength": 76968,
      "byteOffset": 124896,
      "byteStride": 12,
      "name": "floatBufferViews",
      "target": 34962
    },
    {
      "buffer": 0,
      "byteLength": 51312,
      "byteOffset": 201864,
      "byteStride": 16,
      "name": "floatBufferViews",
      "target": 34962
    }
  ],
  "buffers": [
    {
      "byteLength": 253176,
      "uri": "scene.bin"
    }
  ],
  "images": [
    {
      "uri": "textures/coiled_gwynsword_baseColor.png"
    },
    {
      "uri": "textures/coiled_gwynsword_metallicRoughness.png"
    },
    {
      "uri": "textures/coiled_gwynsword_emissive.png"
    },
    {
      "uri": "textures/coiled_gwynsword_normal.png"
    }
  ],
  "materials": [
    {
      "doubleSided": true,
      "emissiveFactor": [
        1.0,
        1.0,
        1.0
      ],
      "emissiveTexture": {
        "index": 2
      },
      "name": "coiled_gwynsword",
      "normalTexture": {
        "index": 3
      },
      "occlusionTexture": {
        "index": 1
      },
      "pbrMetallicRoughness": {
        "baseColorTexture": {
          "index": 0
        },
        "metallicRoughnessTexture": {
          "index": 1
        }
      }
    }
  ],
  "meshes": [
    {
      "name": "coiledsword - gwyn_coiled_gwynsword_0",
      "primitives": [
        {
          "attributes": {
            "NORMAL": 1,
            "POSITION": 0,
            "TANGENT": 2,
            "TEXCOORD_0": 3,
            "TEXCOORD_1": 4,
            "TEXCOORD_2": 5
          },
          "indices": 6,
          "material": 0,
          "mode": 4
        }
      ]
    }
  ],
  "nodes": [
    {
      "children": [
        1
      ],
      "matrix": [
        0.5985714793205261,
        -0.7248612642288209,
        0.3410107791423796,
        0.0,
        0.06231670454144478,
        -0.3822701871395109,
        -0.921946942806244,
        0.0,
        0.7986418604850769,
        0.573101818561554,
        -0.18364506959915147,
        0.0,
        4.812829971313477,
        -2.5698785781860347,
        -1.10741674900055,
        1.0
      ],
      "name": "Sketchfab_model"
    },
    {
      "children": [
        2
      ],
      "matrix": [
        0.009999999776482582,
        0.0,
        0.0,
        0.0,
        0.0,
        0.0,
        0.009999999776482582,
        0.0,
        0.0,
        -0.009999999776482582,
        0.0,
        0.0,
        0.0,
        0.0,
        0.0,
        1.0
      ],
      "name": "coiledsword-gwyn.fbx"
    },
    {
      "children": [
        3
      ],
      "name": "RootNode"
    },
    {
      "children": [
        4
      ],
      "matrix": [
        100.0,
        0.0,
        0.0,
        0.0,
        0.0,
        -1.629206793918314e-05,
        -99.99999999999868,
        0.0,
        0.0,
        99.99999999999868,
        -1.629206793918314e-05,
        0.0,
        0.0,
        0.0,
        0.0,
        1.0
      ],
      "name": "coiledsword - gwyn"
    },
    {
      "mesh": 0,
      "name": "coiledsword - gwyn_coiled_gwynsword_0"
    }
  ],
  "samplers": [
    {
      "magFilter": 9729,
      "minFilter": 9987,
      "wrapS": 10497,
      "wrapT": 10497
    }
  ],
  "scene": 0,
  "scenes": [
    {
      "name": "Sketchfab_Scene",
      "nodes": [
        0
      ]
    }
  ],
  "textures": [
    {
      "sampler": 0,
      "source": 0
    },
    {
      "sampler": 0,
      "source": 1
    },
    {
      "sampler": 0,
      "source": 2
    },
    {
      "sampler": 0,
      "source": 3
    }
  ]
}
